<?xml version="1.0" standalone="no"?>
<!DOCTYPE svg PUBLIC "-//W3C//DTD SVG 20010904//EN"
 "http://www.w3.org/TR/2001/REC-SVG-20010904/DTD/svg10.dtd">
<svg version="1.0" xmlns="http://www.w3.org/2000/svg"
 width="1024.000000pt" height="1024.000000pt" viewBox="0 0 1024.000000 1024.000000"
 preserveAspectRatio="xMidYMid meet">

<g transform="translate(0.000000,1024.000000) scale(0.100000,-0.100000)"
fill="currentColor" stroke="none">
<path d="M8156 9584 c-3 -8 -6 -175 -6 -370 l0 -354 -357 0 c-197 0 -364 -4
-371 -8 -9 -7 -12 -59 -10 -228 l3 -219 365 -5 365 -5 5 -365 5 -365 227 -3
228 -2 2 367 3 368 364 3 c277 2 367 5 373 15 4 6 8 105 8 218 0 160 -3 209
-13 218 -9 7 -128 12 -373 13 l-359 3 -5 365 -5 365 -221 3 c-196 2 -222 0
-228 -14z"/>
<path d="M1470 7661 c0 -5 30 -37 67 -70 l68 -61 2823 0 2824 0 64 62 c35 33
64 65 64 70 0 4 -1330 8 -2955 8 -1793 0 -2955 -4 -2955 -9z"/>
<path d="M6350 6713 c-14 -6 -215 -114 -290 -156 -19 -11 -60 -33 -90 -50 -30
-16 -93 -51 -140 -77 -90 -50 -158 -87 -255 -140 -33 -18 -73 -40 -90 -50 -29
-17 -93 -52 -200 -110 -107 -58 -171 -93 -200 -110 -16 -10 -55 -31 -85 -47
-142 -78 -177 -97 -205 -113 -29 -17 -93 -52 -200 -110 -27 -15 -76 -42 -108
-59 l-58 -33 -44 21 c-25 12 -49 21 -55 21 -6 0 -18 4 -28 9 -20 11 -95 39
-432 163 -30 11 -65 24 -77 29 -13 5 -33 13 -45 18 -13 5 -50 19 -83 31 -33
12 -69 26 -80 30 -11 5 -54 20 -95 35 -71 25 -212 78 -255 95 -100 40 -129 49
-134 44 -3 -3 19 -29 49 -56 126 -117 289 -268 364 -338 44 -41 110 -102 146
-135 36 -33 101 -94 145 -135 76 -71 268 -249 400 -370 33 -30 93 -86 133
-125 40 -38 79 -73 86 -77 17 -9 -2 -26 421 372 50 47 120 112 155 144 36 33
101 94 145 135 44 42 107 101 140 131 66 60 300 279 435 405 109 102 346 322
430 400 96 88 226 215 220 214 -3 0 -12 -3 -20 -6z"/>
<path d="M4336 4572 c-3 -3 -6 -783 -6 -1734 0 -1374 -3 -1729 -12 -1732 -52
-15 -110 -31 -223 -61 -148 -40 -199 -54 -235 -65 -14 -4 -45 -13 -70 -20 -25
-7 -56 -16 -70 -20 -33 -10 -78 -23 -235 -65 -148 -40 -199 -54 -235 -65 -41
-13 -108 -31 -220 -60 -25 -7 -56 -16 -70 -20 -34 -10 -78 -23 -270 -75 -215
-59 -240 -67 -240 -77 0 -4 891 -8 1980 -8 1089 0 1980 2 1980 5 0 6 -43 24
-85 35 -16 5 -111 31 -210 59 -169 48 -207 59 -295 84 -19 5 -44 13 -55 18
-11 4 -119 35 -240 69 -263 74 -275 77 -320 90 -19 6 -52 15 -72 21 -21 5 -53
14 -70 20 -113 32 -82 23 -313 88 -80 22 -163 47 -185 54 l-40 14 -3 1716 -2
1717 -59 -6 c-43 -5 -67 -2 -89 9 -17 8 -33 12 -36 9z"/>
</g>
</svg>
