<?xml version="1.0" standalone="no"?>
<!DOCTYPE svg PUBLIC "-//W3C//DTD SVG 20010904//EN"
 "http://www.w3.org/TR/2001/REC-SVG-20010904/DTD/svg10.dtd">
<svg version="1.0" xmlns="http://www.w3.org/2000/svg"
 width="1024.000000pt" height="1024.000000pt" viewBox="0 0 1024.000000 1024.000000"
 preserveAspectRatio="xMidYMid meet">

<g transform="translate(0.000000,1024.000000) scale(0.100000,-0.100000)"
fill="currentColor" stroke="none">
<path d="M2070 8611 c0 -5 20 -27 45 -50 l45 -41 2960 0 2960 0 45 41 c25 23
45 45 45 50 0 5 -1320 9 -3050 9 -1730 0 -3050 -4 -3050 -9z"/>
<path d="M7145 7776 c-143 -78 -296 -162 -340 -186 -44 -24 -96 -52 -115 -63
-19 -11 -161 -88 -315 -172 -154 -84 -300 -164 -325 -177 -48 -27 -149 -82
-240 -131 -30 -16 -75 -41 -100 -55 -139 -77 -490 -268 -522 -284 -20 -10 -40
-22 -43 -28 -9 -15 -35 -12 -80 10 -22 11 -45 19 -51 20 -7 0 -25 7 -40 15
-16 8 -36 15 -45 15 -8 0 -19 4 -25 9 -5 5 -25 14 -44 19 -19 6 -60 20 -90 32
-30 12 -71 26 -90 32 -19 5 -39 14 -44 19 -6 5 -16 9 -24 9 -8 0 -28 6 -45 14
-18 8 -66 26 -107 41 -41 15 -97 36 -125 47 -86 33 -129 48 -170 62 -22 8
-168 61 -323 120 -156 58 -290 106 -297 106 -12 0 41 -53 190 -192 33 -30 213
-197 400 -370 187 -173 482 -446 655 -606 173 -161 320 -292 325 -292 6 0 39
29 75 63 36 34 174 161 305 282 132 121 303 279 380 350 77 72 192 177 255
235 63 58 149 137 190 175 41 39 127 117 190 175 63 58 182 168 265 244 82 77
173 160 200 185 335 309 453 421 442 420 -6 0 -129 -64 -272 -143z"/>
<path d="M5172 5524 c-23 -16 -88 -16 -124 0 -17 8 -18 -79 -18 -1743 l0
-1751 -27 -6 c-25 -5 -67 -16 -218 -59 -132 -37 -245 -69 -290 -80 -27 -7
-133 -36 -235 -65 -214 -60 -283 -79 -325 -90 -16 -4 -138 -38 -270 -75 -132
-37 -262 -73 -290 -80 -128 -33 -210 -57 -224 -65 -10 -6 767 -9 1974 -9 1944
1 1989 1 1935 19 -30 10 -80 25 -110 34 -30 9 -95 28 -145 42 -49 14 -130 37
-180 51 -49 13 -133 37 -185 53 -94 28 -193 56 -385 110 -55 15 -140 40 -190
54 -49 14 -112 33 -140 40 -27 8 -84 24 -125 36 -41 12 -88 26 -105 30 -74 22
-136 40 -207 61 l-78 23 0 1743 c0 959 -3 1743 -8 1743 -4 0 -18 -7 -30 -16z"/>
</g>
</svg>
